<svg version="1.1" xmlns="http://www.w3.org/2000/svg" style="display: block;" viewBox="0 0 2048 2048" width="512" height="512">
<defs>
	<linearGradient id="Gradient1" gradientUnits="userSpaceOnUse" x1="1594.11" y1="1216.39" x2="1430.02" y2="1188.84">
		<stop class="stop0" offset="0" stop-opacity="1" stop-color="rgb(13,95,195)"/>
		<stop class="stop1" offset="1" stop-opacity="1" stop-color="rgb(68,157,248)"/>
	</linearGradient>
	<linearGradient id="Gradient2" gradientUnits="userSpaceOnUse" x1="1308.4" y1="1138.25" x2="1399.72" y2="1170.24">
		<stop class="stop0" offset="0" stop-opacity="1" stop-color="rgb(15,92,192)"/>
		<stop class="stop1" offset="1" stop-opacity="1" stop-color="rgb(31,121,223)"/>
	</linearGradient>
	<linearGradient id="Gradient3" gradientUnits="userSpaceOnUse" x1="663.56" y1="1125.29" x2="744.529" y2="1163.01">
		<stop class="stop0" offset="0" stop-opacity="1" stop-color="rgb(8,85,193)"/>
		<stop class="stop1" offset="1" stop-opacity="1" stop-color="rgb(36,124,227)"/>
	</linearGradient>
</defs>
<path transform="translate(0,0)" fill="rgb(212,242,141)" d="M 440 756.196 C 426.826 743.089 424.45 650.529 422.663 630.232 L 406.779 444.183 C 402.434 387.131 373.777 296.436 457.204 284.758 C 494.171 279.584 531.91 279.592 569.105 276.64 C 743.498 262.797 922.261 249.636 1097.02 240.026 C 1119.62 238.783 1143.76 234.747 1166.24 237.541 C 1246.86 250.756 1234.05 343.687 1233.91 401.019 C 1217.45 405.133 1204.71 412.103 1194.29 425.914 C 1182.5 456.621 1188.77 501.929 1188.78 534.533 L 1188.81 713.48 C 1188.75 730.849 1188.24 748.37 1188.81 765.722 L 715.857 795.019 C 674.262 797.563 632.508 800.677 590.957 803.946 C 538.513 808.071 458.383 824.876 440 756.196 z"/>
<path transform="translate(0,0)" fill="rgb(157,214,73)" d="M 1188.81 713.48 C 1188.75 730.849 1188.24 748.37 1188.81 765.722 L 715.857 795.019 C 674.262 797.563 632.508 800.677 590.957 803.946 C 538.513 808.071 458.383 824.876 440 756.196 C 470.78 778.726 487.989 772.132 524.48 769.407 L 1064.07 734.439 C 1104.03 731.976 1154.98 737.227 1188.81 713.48 z"/>
<path transform="translate(0,0)" fill="rgb(157,214,73)" d="M 1166.24 237.541 C 1246.86 250.756 1234.05 343.687 1233.91 401.019 C 1217.45 405.133 1204.71 412.103 1194.29 425.914 C 1183.02 397.033 1202.88 292.641 1186.85 260.289 C 1182.27 251.048 1172.4 245.717 1166.24 237.541 z"/>
<path transform="translate(0,0)" fill="rgb(254,254,254)" d="M 986.924 608.135 C 975.922 584.791 978.988 446.719 978.98 414.145 C 978.97 377.147 967.19 343.477 1013.81 340.585 C 1066.37 337.324 1075.28 337.55 1112.09 370.019 C 1169.02 397.824 1156.28 499.412 1087.6 521.485 C 1074.62 525.658 1060.9 526.954 1047.33 527.139 C 1047.4 546.006 1049.68 593.459 1046.24 609.104 C 1039.41 640.088 1008.37 637.589 995.578 613.19 L 996.034 611.524 C 992.84 610.845 989.92 609.413 986.924 608.135 z"/>
<path transform="translate(0,0)" fill="rgb(157,214,73)" d="M 1112.09 370.019 C 1169.02 397.824 1156.28 499.412 1087.6 521.485 C 1074.62 525.658 1060.9 526.954 1047.33 527.139 C 1047.4 546.006 1049.68 593.459 1046.24 609.104 C 1039.41 640.088 1008.37 637.589 995.578 613.19 L 996.034 611.524 C 1034.49 620.561 1029.18 581.879 1028.97 557.557 C 1028.84 541.629 1029.68 525.756 1028.99 509.823 C 1108.47 508.891 1160.96 435.275 1112.09 370.019 z"/>
<path transform="translate(0,0)" fill="rgb(157,214,73)" d="M 1028.99 383.593 C 1052.24 383.167 1068.55 383.063 1080.84 406.086 C 1087.35 430.349 1074.1 459.854 1047.33 463.319 C 1041.22 463.796 1035.11 463.488 1028.99 463.319 C 1029.06 436.769 1028.2 410.126 1028.99 383.593 z"/>
<path transform="translate(0,0)" fill="rgb(212,242,141)" d="M 1047.33 401.019 C 1058.54 402.266 1069.86 403.44 1080.84 406.086 C 1087.35 430.349 1074.1 459.854 1047.33 463.319 L 1047.33 401.019 z"/>
<path transform="translate(0,0)" fill="rgb(254,254,254)" d="M 495.842 383.593 C 514.833 367.139 588.378 365.885 605.604 370.892 C 610.465 372.305 614.786 377.75 619.07 380.514 L 620.252 381.266 C 626.243 384.094 634.031 394.175 636.245 400.233 C 651.532 442.067 586.335 437.927 563.099 438.149 L 563.099 478.098 L 564.987 478.224 C 597.034 480.185 592.406 468.715 620.252 488.178 C 642.76 490.318 649.163 526.113 632.451 538.294 C 620.381 547.092 578.632 545.34 563.099 545.226 L 563.208 606.079 C 563.241 625.957 568.408 663.265 537.019 661.79 C 525.406 661.245 513.242 651.045 506.962 641.749 C 504.244 637.74 499.313 633.735 495.842 630.25 C 495.17 612.836 495.772 595.191 495.807 577.758 L 495.718 422.72 C 495.611 409.698 494.786 396.586 495.842 383.593 z"/>
<path transform="translate(0,0)" fill="rgb(157,214,73)" d="M 620.252 488.178 C 642.76 490.318 649.163 526.113 632.451 538.294 C 620.381 547.092 578.632 545.34 563.099 545.226 L 563.208 606.079 C 563.241 625.957 568.408 663.265 537.019 661.79 C 525.406 661.245 513.242 651.045 506.962 641.749 C 548.723 653.761 544.965 617.503 544.911 590.78 L 544.803 527.139 C 573.185 529.236 634.612 534.644 620.252 488.178 z"/>
<path transform="translate(0,0)" fill="rgb(157,214,73)" d="M 620.252 381.266 C 626.243 384.094 634.031 394.175 636.245 400.233 C 651.532 442.067 586.335 437.927 563.099 438.149 L 563.099 478.098 C 556.896 478.52 551.005 478.536 544.803 478.098 C 545.003 458.917 542.503 438.873 544.803 419.911 C 575.471 420.55 628.115 426.231 620.252 381.266 z"/>
<path transform="translate(0,0)" fill="rgb(254,254,254)" d="M 650.971 378.286 L 651.36 377.572 C 663.535 354.744 686.783 359.25 699.492 378.286 C 725.952 373.083 719.133 451.467 719.128 463.498 L 719.103 579.224 C 736.995 578.806 755.429 577.033 773.218 579.224 C 776.201 581.526 779.163 583.861 782.232 586.049 C 803.112 586.963 809.946 626.76 796.541 638.631 C 785.54 648.373 683.344 659.845 664.291 628.306 C 661.245 623.121 655.753 620.65 654.518 613.884 C 650.567 592.242 653.408 550.93 653.076 527.111 C 652.388 477.794 648.293 427.57 650.971 378.286 z"/>
<path transform="translate(0,0)" fill="rgb(157,214,73)" d="M 699.492 378.286 C 725.952 373.083 719.133 451.467 719.128 463.498 L 719.103 579.224 C 713.242 579.545 707.202 579.237 701.322 579.224 L 701.351 456.553 C 701.355 430.673 702.697 403.985 699.492 378.286 z"/>
<path transform="translate(0,0)" fill="rgb(157,214,73)" d="M 782.232 586.049 C 803.112 586.963 809.946 626.76 796.541 638.631 C 785.54 648.373 683.344 659.845 664.291 628.306 C 678.997 632.448 761.641 629.358 775.081 623.293 C 787.765 617.57 787.502 596.447 782.232 586.049 z"/>
<path transform="translate(0,0)" fill="rgb(254,254,254)" d="M 903.026 617.703 C 880.075 603.296 886.265 552.807 886.291 530.11 L 886.143 403.405 C 885.888 384.213 879.471 353.588 905.782 349.783 C 919.753 347.762 924.671 358.901 934.968 365.017 C 942.71 368.445 947.909 374.056 952.204 381.266 L 954.328 540.213 C 954.6 563.224 967.266 637.458 933.049 636.787 C 922.459 636.58 907.477 627.652 903.026 617.703 z"/>
<path transform="translate(0,0)" fill="rgb(157,214,73)" d="M 934.968 365.017 C 942.71 368.445 947.909 374.056 952.204 381.266 L 954.328 540.213 C 954.6 563.224 967.266 637.458 933.049 636.787 C 922.459 636.58 907.477 627.652 903.026 617.703 C 947.559 619.937 936.733 596.61 936.639 562.743 L 936.616 478.242 C 936.619 448.267 940.003 393.445 934.968 365.017 z"/>
<path transform="translate(0,0)" fill="rgb(254,254,254)" d="M 819.234 617.703 C 795.389 597.995 807.801 552.252 858.035 579.224 C 911.756 604.886 841.613 676.128 819.234 617.703 z"/>
<path transform="translate(0,0)" fill="rgb(157,214,73)" d="M 858.035 579.224 C 911.756 604.886 841.613 676.128 819.234 617.703 C 847.3 626.977 863.901 605.445 858.035 579.224 z"/>
<path transform="translate(0,0)" fill="rgb(254,187,70)" d="M 538.416 1760.71 C 532.975 1738.34 535.591 1711.45 535.593 1688.48 L 535.611 1513.6 C 535.626 1488.98 529.507 1454.43 553.961 1439.04 C 572.727 1427.24 634.487 1432.34 657.009 1432.35 L 1364.56 1432.39 C 1394.36 1432.37 1447.51 1429.14 1473.66 1435.61 C 1524.86 1452.35 1521.23 1480.02 1521.04 1524.74 L 1521.07 1701.1 C 1521.06 1735.11 1530.01 1786.65 1492.99 1804.43 C 1467.49 1816.68 1345.69 1810.54 1313.08 1810.54 L 673.1 1810.55 C 622.236 1810.56 554.276 1825.05 538.416 1760.71 z M 1028.99 1552.92 C 1014.74 1528.26 1000.01 1504.89 970.654 1496.97 C 853.826 1465.47 820.363 1656.22 901.712 1711.63 C 904.902 1713.8 909.235 1715.72 912.04 1718.27 C 1019.2 1757.75 1045.66 1637.54 1028.99 1552.92 z M 773.218 1654.29 C 778.972 1663.78 784.237 1673.01 788.113 1683.45 C 790.286 1686.05 817.805 1722.63 819.234 1725.54 C 830.516 1725.48 852.223 1719.44 846.696 1703.97 C 839.695 1684.36 814.262 1649.71 802.982 1624.99 C 839.387 1609.01 844.196 1564.23 830.247 1530.76 C 809.269 1485.36 730.822 1477.43 732.502 1523.15 C 733.516 1526.79 734.551 1530.37 735.15 1534.1 L 735.432 1642.29 C 735.291 1662.67 727.663 1715.32 746.28 1725.54 C 785.96 1737.52 774.133 1676.14 773.218 1654.29 z M 1055.55 1718.27 L 1064.16 1722.5 C 1116.14 1739.7 1090.48 1622.98 1094.69 1590.92 L 1094.96 1588.99 C 1100.56 1598.42 1105.67 1607.66 1112.09 1616.62 C 1116.23 1631.57 1132.22 1654.73 1145.04 1663.32 C 1179.85 1671.51 1194.21 1606.2 1214.93 1585.07 L 1216.49 1585.37 C 1218.28 1596.34 1217.04 1609.41 1216.97 1620.61 C 1216.92 1643.05 1209.91 1707.3 1223.92 1721.37 L 1225.06 1722.5 C 1237.68 1725.39 1246.65 1722.79 1256.01 1713.38 C 1259.12 1647.64 1254.77 1577.6 1256.01 1511.02 C 1253.77 1499.98 1241.7 1490.85 1230.43 1493.75 C 1217.82 1496.99 1164.12 1595.36 1154.05 1616.62 C 1137.41 1594.68 1119.42 1559.57 1106.6 1534.88 C 1099.17 1520.55 1094.49 1498.92 1077.29 1493.98 C 1060.09 1497.47 1057.48 1502.14 1056.41 1519.01 C 1053.96 1557.54 1055.51 1596.92 1055.51 1635.56 L 1055.51 1688.53 C 1055.49 1698.39 1054.9 1708.43 1055.55 1718.27 z M 713.374 1610.94 C 710.501 1582.01 686.679 1589.72 664.291 1588.99 C 658.725 1588.01 661.709 1540.67 662.017 1534.1 C 688.335 1534.23 707.697 1543.05 719.103 1514.07 C 711.142 1488.22 637.709 1490.46 625.173 1503.59 C 619.523 1529.05 621.89 1712.91 624.824 1718.1 C 626.891 1721.75 632.506 1723.88 636.056 1725.54 C 667.734 1730.94 662.097 1698.95 662.091 1677.79 L 662.017 1624.99 C 680.316 1625.41 704.303 1631.42 713.374 1610.94 z M 1291.57 1722.5 C 1330.01 1731.38 1317.17 1667.84 1317.34 1646.33 C 1376.09 1654.02 1451.39 1611.04 1419.21 1546.03 C 1407.56 1485.72 1290.54 1485.1 1281.46 1501.3 C 1274.04 1514.53 1277.86 1706.82 1280.99 1713.7 C 1283.07 1718.3 1287.01 1720.76 1291.57 1722.5 z"/>
<path transform="translate(0,0)" fill="rgb(248,157,40)" d="M 1473.66 1435.61 C 1524.86 1452.35 1521.23 1480.02 1521.04 1524.74 L 1521.07 1701.1 C 1521.06 1735.11 1530.01 1786.65 1492.99 1804.43 C 1467.49 1816.68 1345.69 1810.54 1313.08 1810.54 L 673.1 1810.55 C 622.236 1810.56 554.276 1825.05 538.416 1760.71 C 549.933 1760.77 554.912 1775.04 580.177 1775.17 L 1331.43 1775.21 C 1431.38 1775.3 1478.02 1795.76 1477.89 1680.79 L 1477.91 1513.5 C 1477.91 1495.6 1478.43 1477.53 1477.87 1459.65 C 1477.61 1451.36 1473.14 1444.17 1473.66 1435.61 z"/>
<path transform="translate(0,0)" fill="rgb(254,187,70)" d="M 912.04 1672.55 C 868.616 1595.89 923.569 1492.21 977.834 1546.03 C 1028.81 1586.17 978.397 1735.04 912.04 1672.55 z"/>
<path transform="translate(0,0)" fill="rgb(248,157,40)" d="M 912.04 1672.55 C 868.616 1595.89 923.569 1492.21 977.834 1546.03 C 970.4 1550.39 957.153 1546.88 948.42 1549.13 C 891.17 1563.85 923.418 1650.54 912.04 1672.55 z"/>
<path transform="translate(0,0)" fill="rgb(254,187,70)" d="M 1317.34 1530.76 C 1342.25 1534.11 1360.3 1532.05 1380.88 1549.17 C 1405.94 1576.26 1368.75 1610.82 1329.99 1610.94 C 1326.33 1611.07 1322.43 1611.61 1319.02 1610.1 C 1315.21 1600.44 1317.31 1544.62 1317.34 1530.76 z"/>
<path transform="translate(0,0)" fill="rgb(248,157,40)" d="M 1317.34 1530.76 C 1342.25 1534.11 1360.3 1532.05 1380.88 1549.17 C 1376.69 1552.37 1340.73 1545.91 1329.99 1546.03 C 1329.99 1558.73 1332.1 1602.43 1329.99 1610.94 C 1326.33 1611.07 1322.43 1611.61 1319.02 1610.1 C 1315.21 1600.44 1317.31 1544.62 1317.34 1530.76 z"/>
<path transform="translate(0,0)" fill="rgb(248,157,40)" d="M 773.218 1534.1 C 784.344 1534.19 789.868 1535.96 795.889 1546.03 C 803.429 1561.18 800.28 1577.88 788.113 1588.99 C 783.919 1594.37 779.457 1595.77 773.218 1597.83 L 773.218 1534.1 z"/>
<path transform="translate(0,0)" fill="rgb(254,187,70)" d="M 795.889 1546.03 C 803.429 1561.18 800.28 1577.88 788.113 1588.99 C 785.071 1577.18 786.425 1561.44 786.006 1549.17 C 789.355 1548.5 793.129 1548.15 795.889 1546.03 z"/>
<path transform="translate(0,0)" fill="rgb(248,157,40)" d="M 1419.21 1546.03 C 1442.83 1538.29 1442.11 1603.95 1429.59 1624.08 C 1408.21 1658.45 1366.01 1660.27 1329.99 1660.07 C 1329.77 1682.66 1330.74 1705.55 1329.99 1728.08 C 1316.84 1744.61 1301.18 1741.42 1291.57 1722.5 C 1330.01 1731.38 1317.17 1667.84 1317.34 1646.33 C 1376.09 1654.02 1451.39 1611.04 1419.21 1546.03 z"/>
<path transform="translate(0,0)" fill="rgb(248,157,40)" d="M 1028.99 1552.92 L 1033.21 1552.16 C 1060.68 1571.93 1063.82 1725.49 970.16 1739.5 C 955.897 1741.63 914.124 1738.42 912.04 1718.27 C 1019.2 1757.75 1045.66 1637.54 1028.99 1552.92 z"/>
<path transform="translate(0,0)" fill="rgb(248,157,40)" d="M 1256.01 1511.02 C 1261.91 1513.06 1265.55 1518.34 1269.15 1523.15 L 1269.17 1656.48 C 1269.25 1686.82 1281.97 1730.95 1247.29 1739.51 C 1238.59 1736.86 1226.48 1732.9 1225.06 1722.5 C 1237.68 1725.39 1246.65 1722.79 1256.01 1713.38 C 1259.12 1647.64 1254.77 1577.6 1256.01 1511.02 z"/>
<path transform="translate(0,0)" fill="rgb(248,157,40)" d="M 830.247 1530.76 C 852.149 1524.99 870.321 1615.2 819.234 1640.83 C 825.432 1650.93 864.172 1716.26 862.487 1723.83 C 858.035 1743.83 830.189 1743.67 819.234 1725.54 C 830.516 1725.48 852.223 1719.44 846.696 1703.97 C 839.695 1684.36 814.262 1649.71 802.982 1624.99 C 839.387 1609.01 844.196 1564.23 830.247 1530.76 z"/>
<path transform="translate(0,0)" fill="rgb(248,157,40)" d="M 713.374 1610.94 L 714.497 1609.37 C 724.28 1596.03 736.398 1626.11 723 1636.03 C 712.211 1644.03 689.126 1640.49 675.977 1640.83 L 676.074 1695.32 C 676.103 1705.89 677.265 1718.16 675.154 1728.5 C 671.096 1748.36 636.89 1745.51 636.056 1725.54 C 667.734 1730.94 662.097 1698.95 662.091 1677.79 L 662.017 1624.99 C 680.316 1625.41 704.303 1631.42 713.374 1610.94 z"/>
<path transform="translate(0,0)" fill="rgb(248,157,40)" d="M 1094.96 1588.99 C 1100.56 1598.42 1105.67 1607.66 1112.09 1616.62 C 1101.6 1626.92 1106.34 1711.8 1106.15 1728.08 C 1091.87 1746.08 1074.81 1742.14 1064.16 1722.5 C 1116.14 1739.7 1090.48 1622.98 1094.69 1590.92 L 1094.96 1588.99 z"/>
<path transform="translate(0,0)" fill="rgb(248,157,40)" d="M 1145.04 1663.32 C 1179.85 1671.51 1194.21 1606.2 1214.93 1585.07 L 1216.49 1585.37 C 1218.28 1596.34 1217.04 1609.41 1216.97 1620.61 C 1202.7 1638.25 1188.38 1677.93 1167.3 1679.59 C 1158.27 1680.31 1146.39 1672.8 1145.04 1663.32 z"/>
<path transform="translate(0,0)" fill="rgb(248,157,40)" d="M 719.103 1514.07 L 720.332 1513.78 C 724.115 1517.35 727.591 1521.21 732.502 1523.15 C 733.516 1526.79 734.551 1530.37 735.15 1534.1 C 731.122 1556.08 691.74 1549.34 675.977 1549.17 C 676.048 1569.63 683.955 1587.95 664.291 1588.99 C 658.725 1588.01 661.709 1540.67 662.017 1534.1 C 688.335 1534.23 707.697 1543.05 719.103 1514.07 z"/>
<path transform="translate(0,0)" fill="rgb(248,157,40)" d="M 773.218 1654.29 C 778.972 1663.78 784.237 1673.01 788.113 1683.45 C 782.435 1699.38 797.329 1728.66 779.442 1739.07 C 768.294 1745.55 746.305 1741.07 746.28 1725.54 C 785.96 1737.52 774.133 1676.14 773.218 1654.29 z"/>
<path transform="translate(0,0)" fill="rgb(243,63,89)" d="M 1233.91 401.019 L 1564.62 400.94 C 1640.79 400.663 1657.99 412.374 1657.95 497.373 L 1658.26 748.511 C 1658.08 814.468 1593.61 814.121 1545.99 814.095 L 1439.23 814.022 C 1416.98 814.011 1393.96 812.704 1371.93 815.842 L 1370.82 816.01 C 1351.27 832.351 1303.55 877.637 1283.96 886.533 C 1255.57 887.095 1253.53 863.601 1253.03 841.049 C 1252.91 832.704 1253 824.355 1253.03 816.01 C 1219.96 813.608 1193.15 802.837 1188.81 765.722 C 1188.24 748.37 1188.75 730.849 1188.81 713.48 L 1188.78 534.533 C 1188.77 501.929 1182.5 456.621 1194.29 425.914 C 1204.71 412.103 1217.45 405.133 1233.91 401.019 z M 1296.88 839.203 C 1319.85 820.522 1337.75 792.843 1360.91 776.289 C 1379.64 775.684 1398.48 776.276 1417.23 776.29 L 1528.21 776.327 C 1557.17 776.343 1611.93 788.6 1618.21 748.027 C 1622.22 722.189 1619.8 686.78 1619.79 660.031 L 1619.8 492.583 C 1616.23 491.642 1612.75 490.594 1609.26 489.403 L 1608.68 488.371 L 1610.46 488.178 C 1617.13 484.113 1618.3 477.654 1619.8 470.545 C 1617.68 439.784 1601.66 424.242 1571.34 417.896 C 1568.16 422.969 1565.62 427.769 1563.46 433.356 C 1542.7 432.775 1521.77 433.38 1500.99 433.361 L 1302.8 433.292 C 1217.91 432.84 1222.5 448.592 1222.03 523.606 L 1221.99 671.433 C 1222 738.004 1206.64 785.618 1296.88 776.289 L 1296.88 839.203 z"/>
<path transform="translate(0,0)" fill="rgb(254,90,118)" d="M 1296.88 776.289 C 1206.64 785.618 1222 738.004 1221.99 671.433 L 1222.03 523.606 C 1222.5 448.592 1217.91 432.84 1302.8 433.292 L 1500.99 433.361 C 1521.77 433.38 1542.7 432.775 1563.46 433.356 C 1560.17 453.714 1579.3 450.327 1592.9 463.319 C 1592.52 469.272 1591.69 475.388 1592.9 481.268 C 1598.72 483.654 1604.51 486.126 1610.46 488.178 L 1608.68 488.371 L 1609.26 489.403 C 1612.75 490.594 1616.23 491.642 1619.8 492.583 L 1619.79 660.031 C 1619.8 686.78 1622.22 722.189 1618.21 748.027 C 1611.93 788.6 1557.17 776.343 1528.21 776.327 L 1417.23 776.29 C 1398.48 776.276 1379.64 775.684 1360.91 776.289 C 1337.75 792.843 1319.85 820.522 1296.88 839.203 L 1296.88 776.289 z M 1521.04 728.899 C 1547.73 721.469 1542.71 701.173 1542.62 679.05 C 1542.5 650.526 1548.83 616.642 1507.39 624.007 C 1474.38 636.876 1478.03 689.195 1488.32 713.188 C 1493.69 725.706 1508.72 728.759 1521.04 728.899 z M 1447.24 728.899 C 1456.77 727.343 1465.38 724.628 1471.27 716.36 C 1479.37 704.972 1489.15 617.941 1441.03 624.007 C 1425.58 626.758 1414.71 632.931 1411.83 649.075 C 1405.79 682.938 1404.15 725.873 1447.24 728.899 z M 1350.22 728.899 C 1373.39 733.275 1365.03 694.289 1365.01 680.961 C 1375.57 680.56 1380.61 678.477 1380.88 690.553 L 1380.62 691.829 C 1373.29 729.435 1397.84 740.011 1401.93 719.838 C 1404.96 704.89 1403.02 660.026 1402.37 644.049 C 1401.02 611.022 1380.12 610.249 1380.88 661.331 C 1375.59 661.377 1370.29 661.489 1365.01 661.331 C 1364.48 640.423 1367.72 624.536 1342.52 624.007 C 1342.96 643.232 1336.6 720.372 1350.22 728.899 z M 1283.96 624.007 C 1272.57 625.892 1257.84 646.076 1296.88 646.96 C 1295.78 653.421 1295.07 722.107 1297.02 724.91 C 1303.79 734.646 1314.73 729.641 1317.34 720.058 C 1319.16 696.103 1317.24 671.047 1317.34 646.96 C 1323.89 646.743 1329.72 646.252 1336.13 644.702 L 1336.13 624.007 C 1318.79 623.977 1301.28 623.392 1283.96 624.007 z M 1484.01 454.344 C 1462.13 456.802 1424.82 486.632 1410.66 504.386 C 1394.57 524.555 1398.82 585.273 1420.89 602.706 C 1467.79 639.734 1502.32 553.904 1465.9 505.115 C 1464.43 484.128 1505.15 492.504 1510.08 510.364 C 1511.2 514.44 1503.21 645.146 1539.17 605.35 C 1543.97 600.04 1567.32 449.967 1484.01 454.344 z M 1314.51 568.086 C 1314.89 555.576 1318.09 550.436 1329.99 545.226 C 1337.05 545.932 1343.63 549.402 1350.22 551.925 C 1355.4 549.458 1357.76 547.659 1360.91 542.736 C 1357.27 507.622 1312.87 514.147 1296.49 537.594 C 1282.62 557.462 1289.05 590.861 1309.85 603.644 C 1348.53 627.424 1372.53 583.333 1354.36 578.951 C 1338.44 575.113 1322.43 594.727 1314.51 568.086 z"/>
<path transform="translate(0,0)" fill="rgb(243,63,89)" d="M 1435.21 522.897 C 1440.78 522.995 1445.42 523.159 1449.49 527.611 C 1452.2 536.648 1455.65 574.198 1443.01 579.224 C 1418.26 577.325 1431.58 526.097 1435.21 522.897 z"/>
<path transform="translate(0,0)" fill="rgb(243,63,89)" d="M 1441.03 644.702 C 1445.05 644.796 1447.34 645.002 1450.5 647.604 C 1452.42 661.458 1457.24 701.191 1443.01 707.664 C 1429.44 700.395 1431.04 652.883 1441.03 644.702 z"/>
<path transform="translate(0,0)" fill="rgb(254,90,118)" d="M 1510.8 644.702 C 1542.18 644.442 1522.57 704.513 1518.44 707.664 C 1496.41 706.501 1509.13 646.715 1510.8 644.702 z"/>
<path transform="translate(0,0)" fill="rgb(254,254,254)" d="M 1383.83 478.098 C 1388.27 478.592 1391.87 480.34 1393.73 484.723 C 1396.37 490.987 1397.04 599.317 1394.49 604.204 C 1392.21 608.554 1388.23 610.011 1383.83 611.524 C 1379.42 610.666 1375.14 609.363 1370.82 608.135 C 1368.24 584.13 1360.34 489.536 1383.83 478.098 z"/>
<path transform="translate(0,0)" fill="rgb(243,63,89)" d="M 1365.01 680.961 C 1375.57 680.56 1380.61 678.477 1380.88 690.553 C 1379.12 692.761 1377.4 693.055 1374.81 693.727 C 1366.02 705.056 1381.26 746.928 1350.56 734.309 L 1349.27 732.494 C 1349.54 731.258 1349.74 730.076 1350.22 728.899 C 1373.39 733.275 1365.03 694.289 1365.01 680.961 z"/>
<path transform="translate(0,0)" fill="rgb(243,63,89)" d="M 1360.91 542.736 L 1361.92 538.882 C 1369.5 547.317 1361.49 560.408 1350.22 551.925 C 1329.95 547.867 1329.56 560.906 1314.51 568.086 C 1314.89 555.576 1318.09 550.436 1329.99 545.226 C 1337.05 545.932 1343.63 549.402 1350.22 551.925 C 1355.4 549.458 1357.76 547.659 1360.91 542.736 z"/>
<path transform="translate(0,0)" fill="rgb(61,156,247)" d="M 1127.71 1126.26 C 1138.79 1109.31 1149.4 1091.21 1159.62 1073.72 C 1176.8 1044.29 1189.54 1015.38 1225.06 1041.51 C 1253.11 1072.33 1241.95 1099.94 1241.9 1141.92 L 1241.9 1291.72 C 1241.87 1318.25 1240.59 1345.25 1241.95 1371.71 C 1230.92 1386.74 1208.09 1394.18 1192 1382.34 C 1166.07 1363.26 1172.57 1328.48 1172.57 1300.65 L 1172.62 1200.92 C 1146.18 1246.61 1125.08 1246.64 1094.96 1200.92 L 1094.96 1371.71 C 1069.69 1406.72 1024.63 1379.98 1024.56 1342.65 C 1023.15 1332.28 1024.46 1320.29 1024.53 1309.73 L 1024.51 1118.45 C 1024.5 1097.41 1016.5 1048.78 1037.72 1035.88 C 1078.69 1010.96 1112.55 1099.95 1127.71 1126.26 z"/>
<path transform="translate(0,0)" fill="rgb(21,99,201)" d="M 1225.06 1041.51 C 1253.11 1072.33 1241.95 1099.94 1241.9 1141.92 L 1241.9 1291.72 C 1241.87 1318.25 1240.59 1345.25 1241.95 1371.71 C 1230.92 1386.74 1208.09 1394.18 1192 1382.34 C 1166.07 1363.26 1172.57 1328.48 1172.57 1300.65 L 1172.62 1200.92 C 1146.18 1246.61 1125.08 1246.64 1094.96 1200.92 L 1094.96 1371.71 C 1069.69 1406.72 1024.63 1379.98 1024.56 1342.65 C 1029.38 1347.91 1027.69 1366.18 1036.34 1365.26 L 1037.08 1363.74 C 1036.7 1359.52 1034.76 1355.99 1033 1352.2 C 1041.68 1364.6 1058.34 1376.53 1071.96 1361.85 C 1081.42 1351.65 1077.91 1178.28 1077.29 1153.97 C 1089.53 1168.09 1103.98 1205.14 1116.89 1212.3 C 1140.7 1225.51 1172.48 1153.73 1179.97 1139.75 L 1179.98 1230.4 C 1179.84 1253.24 1176.48 1341.12 1183.13 1357.55 C 1189.42 1373.09 1219.72 1368.83 1223.44 1352.68 C 1227.34 1335.69 1225.07 1287.42 1225.07 1267 L 1225.11 1086.34 C 1225.04 1073.41 1220.4 1053.37 1225.06 1041.51 z"/>
<path transform="translate(0,0)" fill="rgb(61,156,247)" d="M 837.575 1322.15 C 820.903 1300.12 819.914 1156.14 827.211 1120.96 C 847.569 1022.83 936.397 1000.46 992.231 1088.94 C 1017.45 1126.39 1016.26 1165.86 1016.26 1209.48 C 1016.25 1264.24 1019.79 1339.7 968.011 1374.17 C 917.734 1407.63 857.554 1374.6 837.575 1322.15 z M 945.333 1139.75 C 932.509 1082.3 896.921 1111.41 891.603 1149.12 C 888.431 1171.62 888.203 1273.41 893.344 1293.39 C 896.982 1307.54 903.13 1311.61 916.502 1314.55 C 962.169 1298.01 951.015 1177.04 945.333 1139.75 z"/>
<path transform="translate(0,0)" fill="rgb(21,99,201)" d="M 992.231 1088.94 C 1017.45 1126.39 1016.26 1165.86 1016.26 1209.48 C 1016.25 1264.24 1019.79 1339.7 968.011 1374.17 C 917.734 1407.63 857.554 1374.6 837.575 1322.15 C 845.494 1324.23 867.092 1375.99 882.367 1369.63 L 884.681 1363.82 C 872.113 1357.29 860.61 1349.13 853.383 1336.64 C 876.196 1357.85 888.541 1373.27 925.914 1367.17 C 1014.45 1352.73 1004.45 1195.18 996.419 1132.45 C 995.131 1122.39 991.561 1113.23 989.984 1103.43 C 994.537 1107.07 1008.16 1171.05 1008.68 1182.41 C 1009.13 1182.25 1009.79 1182.24 1009.99 1181.81 L 1010.75 1180.15 L 1012.77 1180.47 L 1013.64 1179.41 C 1017.95 1136.94 1006.47 1123.9 991.398 1091.08 L 992.231 1088.94 z"/>
<path transform="translate(0,0)" fill="rgb(21,99,201)" d="M 916.502 1314.55 L 916.449 1315.46 L 915.076 1316.47 C 883.155 1307.17 900.064 1294.93 887.377 1287.57 C 872.704 1289.2 891.494 1308.78 893.996 1313.59 C 871.828 1311.13 874.035 1240.02 874.016 1224.12 L 874.067 1155.46 C 874.889 1051 955.511 1090.42 952.077 1131.89 C 949.553 1124.64 944.363 1106.04 938.224 1103.37 L 931.977 1107.73 C 940.554 1112.38 949.708 1131 945.333 1139.75 C 932.509 1082.3 896.921 1111.41 891.603 1149.12 C 888.431 1171.62 888.203 1273.41 893.344 1293.39 C 896.982 1307.54 903.13 1311.61 916.502 1314.55 z"/>
<path transform="translate(0,0)" fill="rgb(61,156,247)" d="M 627.079 1346.73 C 625.708 1336.46 626.944 1324.64 626.975 1314.22 L 627.047 1126.07 C 626.996 1051.08 618.478 1022.17 718.619 1035.92 C 759.585 1041.54 772.619 1062.34 795.889 1093.11 C 824.489 1150.42 821.589 1212.87 758.096 1246.55 L 758.622 1247.83 C 767.934 1270.17 821.821 1348.15 814.991 1365.55 C 809.619 1379.25 784.464 1392.46 770.04 1386.3 C 751.911 1378.55 712.348 1293.96 696.998 1269.89 L 697.039 1325.21 C 697.026 1351.86 701.739 1387.58 663.656 1386.96 C 643.46 1386.64 629.049 1365.06 627.079 1346.73 z M 696.998 1186.89 C 708.111 1183.9 718.296 1179.84 727.647 1172.99 C 762.709 1138.1 745.112 1107.94 696.998 1106.03 L 696.998 1186.89 z"/>
<path transform="translate(0,0)" fill="rgb(21,99,201)" d="M 735.15 1229.98 C 780.521 1205.33 806.045 1170.62 793.627 1115.31 C 792.028 1108.19 781.194 1088.53 795.889 1093.11 C 824.489 1150.42 821.589 1212.87 758.096 1246.55 L 758.622 1247.83 C 767.934 1270.17 821.821 1348.15 814.991 1365.55 C 809.619 1379.25 784.464 1392.46 770.04 1386.3 C 751.911 1378.55 712.348 1293.96 696.998 1269.89 L 697.039 1325.21 C 697.026 1351.86 701.739 1387.58 663.656 1386.96 C 643.46 1386.64 629.049 1365.06 627.079 1346.73 L 628.414 1334.4 C 630.933 1361.42 631.933 1341.02 633.405 1334.97 C 635.841 1381.16 675.684 1369.25 678.735 1348.73 C 680.537 1336.6 679.096 1323.74 678.995 1311.51 L 678.886 1244.13 C 683.289 1243.78 687.637 1243.98 692.044 1244.13 C 707.512 1272.84 736.702 1329.14 755.186 1354.86 C 769.408 1374.64 790.076 1367.01 797.918 1346.73 C 791.137 1328.09 747.031 1244.59 735.15 1229.98 z"/>
<path transform="translate(0,0)" fill="url(#Gradient3)" d="M 678.886 1088.94 C 745.879 1084.17 778.604 1137.68 735.15 1177.03 L 732.573 1179.64 C 718.357 1194.14 697.615 1193.36 678.886 1193.59 C 677.954 1158.81 678.879 1123.75 678.886 1088.94 z M 696.998 1186.89 C 708.111 1183.9 718.296 1179.84 727.647 1172.99 C 762.709 1138.1 745.112 1107.94 696.998 1106.03 L 696.998 1186.89 z"/>
<path transform="translate(0,0)" fill="rgb(61,156,247)" d="M 1272.91 1322.15 C 1271.79 1266.46 1273.01 1210.52 1272.92 1154.8 L 1272.82 1097.88 C 1272.79 1072.49 1270.13 1038.44 1302.53 1033.6 C 1359.69 1025.04 1405.77 1038.84 1441.03 1086 C 1489.67 1175.58 1454.66 1281.87 1342.52 1281.46 C 1342.59 1302.16 1346.89 1365.54 1333.62 1379.15 C 1321.77 1391.29 1299.64 1389.03 1288.25 1377.54 C 1273.11 1362.29 1272.66 1342.17 1272.91 1322.15 z M 1342.52 1206.6 C 1356.01 1206.48 1367.58 1204.37 1376.79 1193.59 C 1391.11 1177.74 1394.65 1158.77 1393.64 1137.95 C 1391.92 1102.59 1374.12 1105.45 1344.39 1106.03 C 1339.28 1111.88 1342.5 1192.39 1342.52 1206.6 z"/>
<path transform="translate(0,0)" fill="rgb(21,99,201)" d="M 1324.93 1260.19 C 1373.39 1260.24 1411.4 1247.55 1432.99 1199.47 C 1451.22 1158.86 1441.59 1135.38 1435.18 1097.17 C 1440.47 1103.91 1441.66 1119.06 1442.93 1127.46 L 1452.61 1125.32 L 1453.72 1123.4 C 1454.05 1113.73 1443.88 1097.44 1440.02 1088.07 L 1441.03 1086 C 1489.67 1175.58 1454.66 1281.87 1342.52 1281.46 C 1342.59 1302.16 1346.89 1365.54 1333.62 1379.15 C 1321.77 1391.29 1299.64 1389.03 1288.25 1377.54 C 1273.11 1362.29 1272.66 1342.17 1272.91 1322.15 C 1274.81 1330.75 1272.73 1363.72 1284.62 1363.29 L 1285.21 1361.67 C 1280.78 1355.97 1281.27 1349.98 1281.26 1343.14 C 1281.8 1350.78 1283.79 1356.97 1286.99 1363.82 C 1301.29 1369.17 1314.06 1365.24 1324.93 1354.76 C 1325.87 1344.69 1325.05 1334.13 1325.02 1324 L 1324.93 1260.19 z"/>
<path transform="translate(0,0)" fill="url(#Gradient2)" d="M 1324.93 1086 C 1370.28 1084.86 1403.13 1090.14 1403.61 1143.89 C 1403.81 1167.05 1399.01 1181.1 1387.57 1200.92 C 1368.31 1216.19 1348.18 1215.19 1324.93 1215.25 L 1324.93 1086 z M 1342.52 1206.6 C 1356.01 1206.48 1367.58 1204.37 1376.79 1193.59 C 1391.11 1177.74 1394.65 1158.77 1393.64 1137.95 C 1391.92 1102.59 1374.12 1105.45 1344.39 1106.03 C 1339.28 1111.88 1342.5 1192.39 1342.52 1206.6 z"/>
<path transform="translate(0,0)" fill="rgb(61,156,247)" d="M 440 1351.71 C 438.783 1342.06 439.881 1330.91 439.906 1321.14 L 440.01 1257.19 C 440.071 1193.89 438.434 1130.21 440.044 1066.95 C 440.526 1048.03 447.655 1039.73 466.274 1037.1 C 492.033 1033.47 549.801 1035.14 576.791 1036.14 C 597.703 1044.07 612.898 1067.65 603.768 1089.67 C 591.364 1119.59 532.142 1108.66 506.962 1109.03 C 506.992 1131.6 507.818 1154.49 506.962 1177.03 C 530.047 1176.88 558.84 1173 576.881 1190.53 C 590.779 1204.03 592.815 1226.09 578.419 1240.04 C 563.34 1254.64 527.338 1249.96 506.962 1249.84 L 507.057 1325.29 C 507.09 1350.91 512.467 1387.66 474.636 1386.79 C 455.855 1386.36 441.294 1369.93 440 1351.71 z"/>
<path transform="translate(0,0)" fill="rgb(21,99,201)" d="M 576.791 1036.14 C 597.703 1044.07 612.898 1067.65 603.768 1089.67 C 591.364 1119.59 532.142 1108.66 506.962 1109.03 C 506.992 1131.6 507.818 1154.49 506.962 1177.03 C 530.047 1176.88 558.84 1173 576.881 1190.53 C 590.779 1204.03 592.815 1226.09 578.419 1240.04 C 563.34 1254.64 527.338 1249.96 506.962 1249.84 L 507.057 1325.29 C 507.09 1350.91 512.467 1387.66 474.636 1386.79 C 455.855 1386.36 441.294 1369.93 440 1351.71 L 440.963 1349.84 C 444.008 1353.94 452.916 1394.36 460.404 1367.69 L 459.544 1366.2 L 458.264 1365.61 C 450.894 1362.16 450.362 1358.31 447.732 1351.22 C 455.317 1364.17 470.731 1374.43 483.254 1361.39 C 494.225 1349.97 490.113 1315.72 490.124 1301.41 L 490.085 1229.98 C 506.527 1229.96 552.967 1235.6 564.636 1222.11 C 594.255 1187.88 530.605 1180.82 506.962 1184.02 L 490.085 1184.02 L 490.085 1088.94 C 509.9 1089.01 553.023 1091.29 570.236 1087.68 C 592.55 1082.99 594.644 1062.85 579.63 1048.55 L 578.669 1047.65 L 579.073 1046.99 C 582.513 1048.75 584.613 1050.92 587.185 1053.73 L 588.204 1054.86 C 602.953 1054.3 579.478 1039.97 576.42 1038.28 L 576.791 1036.14 z"/>
<path transform="translate(0,0)" fill="rgb(61,156,247)" d="M 1450.95 1063.11 C 1448.95 1043.47 1461.35 1036.23 1479.19 1034.64 C 1500.28 1032.75 1561.88 1031.39 1583.14 1034.3 C 1603.73 1037.11 1607.61 1052.98 1619.8 1067.39 C 1618.08 1103.14 1608.47 1114.11 1571.34 1109.03 C 1570.74 1168.45 1571.38 1227.95 1571.37 1287.38 C 1571.37 1321.56 1586.88 1391.06 1537.19 1388.3 C 1502.78 1386.39 1501.88 1343.73 1501.62 1318.18 L 1501.62 1153.97 L 1501.62 1109.03 C 1473.41 1113.97 1451.79 1094.39 1450.95 1067.39 L 1450.95 1063.11 z"/>
<path transform="translate(0,0)" fill="url(#Gradient1)" d="M 1450.95 1063.11 C 1448.95 1043.47 1461.35 1036.23 1479.19 1034.64 C 1500.28 1032.75 1561.88 1031.39 1583.14 1034.3 C 1603.73 1037.11 1607.61 1052.98 1619.8 1067.39 C 1618.08 1103.14 1608.47 1114.11 1571.34 1109.03 C 1570.74 1168.45 1571.38 1227.95 1571.37 1287.38 C 1571.37 1321.56 1586.88 1391.06 1537.19 1388.3 C 1502.78 1386.39 1501.88 1343.73 1501.62 1318.18 C 1505.78 1319.54 1503.67 1301.65 1503.58 1299.05 L 1504.73 1298.64 C 1516.96 1306.29 1504.17 1349.09 1516.11 1362.92 C 1525.5 1373.81 1551.52 1366.05 1553.49 1351.25 C 1554.83 1341.17 1554.12 1330.3 1554.13 1320.11 L 1554.09 1088.94 C 1570.76 1089.26 1599.52 1093.12 1601.86 1069.98 C 1604.37 1045.07 1591.73 1043.24 1570.17 1041.86 C 1538.09 1039.81 1480.8 1036.05 1455.03 1060.73 C 1452.55 1060.27 1453.72 1060.32 1451.55 1060.45 L 1450.95 1063.11 z"/>
<path transform="translate(0,0)" fill="rgb(21,99,201)" d="M 1450.95 1067.39 C 1470.7 1075.18 1452.09 1099.08 1510.8 1088.94 C 1510.79 1107.88 1511.44 1127.1 1510.34 1146.01 C 1511.12 1140.05 1509.4 1110.28 1508.95 1103.04 L 1507.85 1102.36 C 1494.6 1105.87 1510.44 1150.64 1502.35 1154.18 L 1501.62 1153.97 L 1501.62 1109.03 C 1473.41 1113.97 1451.79 1094.39 1450.95 1067.39 z"/>
<path transform="translate(0,0)" fill="rgb(212,242,141)" d="M 903.026 850.996 C 924.69 833.733 995.295 836.028 1004.72 847.981 C 1008.66 851.035 1012.73 853.966 1016.21 857.547 C 1017.35 873.5 1018.01 921.681 1015.83 936.919 C 1012.08 963.066 981.003 954.764 961.665 954.682 C 943.779 954.605 926.503 958.988 912.04 946.136 C 895.751 939.039 901.787 868.989 903.026 850.996 z"/>
<path transform="translate(0,0)" fill="rgb(157,214,73)" d="M 1004.72 847.981 C 1008.66 851.035 1012.73 853.966 1016.21 857.547 C 1017.35 873.5 1018.01 921.681 1015.83 936.919 C 1012.08 963.066 981.003 954.764 961.665 954.682 C 943.779 954.605 926.503 958.988 912.04 946.136 C 919.109 941.774 984.633 951.26 996.641 943.175 C 1013.95 931.524 998.93 862.845 1004.72 847.981 z"/>
<path transform="translate(0,0)" fill="rgb(254,187,70)" d="M 1064.16 841.049 C 1092.09 840.88 1129.25 834.423 1149.86 857.547 C 1150.8 866.679 1150.03 876.362 1149.99 885.561 L 1149.86 941.662 L 1148.1 944.007 C 1142.11 951.845 1137.12 953.588 1127.71 954.836 C 1108.99 954.758 1042.86 964.287 1038.48 937.745 C 1036.63 926.504 1035.65 855.887 1041.13 848.937 C 1046.49 842.151 1056.28 841.805 1064.16 841.049 z"/>
<path transform="translate(0,0)" fill="rgb(22,199,99)" d="M 786.006 841.049 C 813.277 840.974 866.714 830.087 879.909 857.811 C 883.428 865.202 891.547 945.115 868.277 954.836 C 850.327 955.211 805.374 956.861 789.73 953.762 C 766.307 949.121 771.027 923.327 771.084 905.583 L 771.164 850.996 C 775.94 845.12 778.492 842.701 786.006 841.049 z"/>
<path transform="translate(0,0)" fill="rgb(22,199,99)" d="M 699.492 841.049 C 719.073 840.717 734.114 839.21 746.28 857.547 C 747.283 871.831 746.437 886.263 746.425 900.571 C 746.372 966.979 748.919 952.939 681.5 954.836 C 659.482 954.394 640.397 959.998 636.659 932.835 C 635.302 922.977 634.594 866.611 636.148 856.967 C 639.661 835.158 683.862 842.159 699.492 841.049 z"/>
<path transform="translate(0,0)" fill="rgb(254,187,70)" d="M 1170.35 857.547 C 1185.37 831.959 1227.82 841.233 1253.03 841.049 C 1253.53 863.601 1255.57 887.095 1283.96 886.533 C 1283.55 903.169 1288.09 936.567 1278.84 950.46 C 1266.07 958.916 1203.04 956.816 1190.9 953.685 C 1157.61 945.09 1170.29 885.891 1170.35 857.547 z"/>
<path transform="translate(0,0)" fill="rgb(251,142,88)" d="M 1324.93 872.791 C 1343.71 872.515 1406.83 867.386 1416.37 882.203 C 1422.55 891.806 1426.37 943.161 1405.09 954.836 C 1386.55 957.534 1319.41 959.574 1312.02 942.95 C 1304.99 927.122 1300.01 881.879 1324.93 872.791 z"/>
</svg>